<svg xmlns="http://www.w3.org/2000/svg" viewBox="0 0 32 32" width="32" height="32">
  <defs>
    <linearGradient id="grad1" x1="0%" y1="0%" x2="100%" y2="100%">
      <stop offset="0%" style="stop-color:#2563eb;stop-opacity:1" />
      <stop offset="100%" style="stop-color:#0d9488;stop-opacity:1" />
    </linearGradient>
    <linearGradient id="grad2" x1="0%" y1="0%" x2="100%" y2="100%">
      <stop offset="0%" style="stop-color:#0d9488;stop-opacity:1" />
      <stop offset="100%" style="stop-color:#2563eb;stop-opacity:1" />
    </linearGradient>
  </defs>
  
  <!-- Background circle -->
  <circle cx="16" cy="16" r="15" fill="url(#grad1)" stroke="url(#grad2)" stroke-width="1"/>
  
  <!-- AI Brain/Neural Network representation -->
  <g fill="white" opacity="0.9">
    <!-- Central node -->
    <circle cx="16" cy="16" r="2.5"/>
    
    <!-- Outer nodes -->
    <circle cx="8" cy="8" r="1.5"/>
    <circle cx="24" cy="8" r="1.5"/>
    <circle cx="8" cy="24" r="1.5"/>
    <circle cx="24" cy="24" r="1.5"/>
    <circle cx="16" cy="6" r="1.5"/>
    <circle cx="16" cy="26" r="1.5"/>
    <circle cx="6" cy="16" r="1.5"/>
    <circle cx="26" cy="16" r="1.5"/>
    
    <!-- Connection lines -->
    <line x1="16" y1="16" x2="8" y2="8" stroke="white" stroke-width="1" opacity="0.6"/>
    <line x1="16" y1="16" x2="24" y2="8" stroke="white" stroke-width="1" opacity="0.6"/>
    <line x1="16" y1="16" x2="8" y2="24" stroke="white" stroke-width="1" opacity="0.6"/>
    <line x1="16" y1="16" x2="24" y2="24" stroke="white" stroke-width="1" opacity="0.6"/>
    <line x1="16" y1="16" x2="16" y2="6" stroke="white" stroke-width="1" opacity="0.6"/>
    <line x1="16" y1="16" x2="16" y2="26" stroke="white" stroke-width="1" opacity="0.6"/>
    <line x1="16" y1="16" x2="6" y2="16" stroke="white" stroke-width="1" opacity="0.6"/>
    <line x1="16" y1="16" x2="26" y2="16" stroke="white" stroke-width="1" opacity="0.6"/>
  </g>
  
  <!-- Small accent dots -->
  <circle cx="12" cy="12" r="0.8" fill="white" opacity="0.7"/>
  <circle cx="20" cy="12" r="0.8" fill="white" opacity="0.7"/>
  <circle cx="12" cy="20" r="0.8" fill="white" opacity="0.7"/>
  <circle cx="20" cy="20" r="0.8" fill="white" opacity="0.7"/>
</svg>
